<?xml version="1.0" standalone="no"?><!DOCTYPE svg PUBLIC "-//W3C//DTD SVG 1.1//EN" "http://www.w3.org/Graphics/SVG/1.1/DTD/svg11.dtd"><svg class="icon" width="128px" height="76.83px" viewBox="0 0 1706 1024" version="1.1" xmlns="http://www.w3.org/2000/svg"><path fill="#333333" d="M911.62500031 877.625L890.87499969 798.24999969c-4.00000031-13.24999969-16.875-18-31.62499969-18h-48.87499969c-14.625 0-27.49999969 4.62499969-31.62500062 17.87500031l-20.74999969 81.62500031c-3.375 10.75000031-0.12499969 21.375 8.25 29.25l45.12499969 42.12499969c12.87499969 12 33.62500031 11.74999969 46.37500031-0.25000031l45.12499969-42.75c8.74999969-7.99999969 12-19.75000031 8.75000062-30.49999969z m-42.50000062 13.125l-23.87499938 22.00000031c-5.625 5.37499969-15 4.875-20.75000062-0.50000062l-23.74999969-22.62499969c-3.75-3.62500031-5.12500031-8.74999969-3.75-13.62499969l13.00000031-52.875c1.75000031-6 7.5-6 14.12499938-6H845.75c6.49999969 0 12.375 0 14.12500031 6l12.99999938 54.99999938c1.37500031 4.875 0 9.12499969-3.75 12.62500031z m-88.125-168.75c2.625 15 16.37500031 27.375 32.37500062 27.375h42.75c16.125 0 29.74999969-14.12500031 32.37499969-29.12500031l5.50000031-29.37499969c3.375-18.87499969-12-34.5-32.37500062-34.5h-53.87499938c-20.25 0-35.74999969 13.99999969-32.37500062 32.87500031l5.625 32.74999969z m45.75-34.5h17.12500031c10.125 0 11.37499969 5.37499969 11.37499969 14.87500031v1.62499969c0 7.5-4.875 14.50000031-12.87499969 14.50000031h-15.12499969c-11.74999969 0-15-8.12500031-15.62500031-15.50000062 0.75-8.87500031 5.25-15.49999969 15.12499969-15.49999969z m0 0"  /><path fill="#333333" d="M996.62499969 553.50000031c74.25-52.37500031 122.12500031-137.50000031 122.12500031-233.50000031C1118.87499969 160.74999969 990.00000031 32 830.75 32S542.75 160.74999969 542.75 320c0 96 48 183.25000031 122.12500031 233.50000031C512.25000031 618.875 403.25 771.62499969 403.25 948.37500031c0 24 19.62499969 43.62499969 43.62499969 43.62499969s43.62499969-19.62499969 43.62500062-43.62499969c0-187.62499969 152.74999969-340.37500031 340.37499938-340.37500031S1171.25 760.74999969 1171.25 948.37500031c0 24 19.62499969 43.62499969 43.62499969 43.62499969s43.62499969-19.62499969 43.62500062-43.62499969c0-176.74999969-106.875-329.50000031-261.87500062-394.875zM630.125 320c0-111.375 89.50000031-200.74999969 200.74999969-200.74999969s200.625 89.50000031 200.625 200.74999969c0 111.375-89.50000031 200.625-200.625 200.625-111.375 0.12499969-200.74999969-89.37499969-200.74999969-200.625z m0 0"  /></svg>